<svg width="53" height="52" viewBox="0 0 53 52" fill="none" xmlns="http://www.w3.org/2000/svg">
<path d="M26.0617 44.4488C29.39 42.6305 32.0797 40.2345 34.563 37.5001C35.1599 36.8454 35.2999 36.2677 34.9363 35.3819C34.396 34.067 34.6907 32.8621 35.5136 31.726C36.4126 30.4743 37.233 29.1346 38.0387 27.8142C38.8271 26.5351 39.7826 25.6135 41.281 25.8336C42.1505 25.9574 42.5533 25.443 42.8923 24.6177C44.2064 21.4267 45.3486 18.1751 45.7613 14.6622C42.9562 14.2166 42.9341 14.2193 42.7474 10.8825C42.649 9.7189 42.4322 8.57168 42.1014 7.46315C41.9368 6.8387 41.7428 6.17024 41.7894 5.53753C41.8378 4.98533 42.0024 4.45384 42.2697 3.98666C42.537 3.51948 42.8993 3.12991 43.3271 2.84992C44.1254 2.3245 44.7198 3.38084 45.243 3.90626C47.0152 5.64024 48.6213 7.57632 50.0353 9.68312C50.4823 10.3653 50.7525 10.921 50.2244 11.8178C48.9962 13.9167 48.9299 17.0803 50.7034 18.673C55.0314 22.5518 52.1771 27.5474 50.7378 31.924C50.2465 33.426 49.5931 34.4796 47.9302 34.1963C46.8224 34.0092 46.1297 34.8455 45.5304 35.7753C44.6142 37.2195 43.7275 38.672 42.7449 40.0171C39.8514 43.6593 43.359 43.9344 41.6519 45.6345C39.3331 48.0222 36.8817 50.1762 33.9563 51.5984C32.8583 52.1321 31.9667 52.0853 31.1512 51.0482C30.4904 50.2229 29.7732 49.9809 28.717 50.355C27.5217 50.7505 26.2615 50.8352 25.0325 50.6026C24.3177 50.4843 23.4605 50.3275 22.9938 51.0152C21.8148 52.7428 20.7831 51.8405 19.7318 50.9409C18.1327 49.5655 16.5386 48.1405 15.0108 46.6688C14.5637 46.2396 13.6844 45.8683 14.0504 44.9825C14.4164 44.0967 14.9396 42.9441 15.9737 43.0294C18.7009 43.2554 21.4425 42.951 24.077 42.1298C25.5901 41.6677 25.5901 43.3017 26.0617 44.4488Z" fill="black"/>
<path d="M11.2132 36.2594C8.29752 33.1124 5.85104 30.2075 4.84396 26.1554C3.67721 21.4789 6.01315 18.3842 10.292 19.0334C15.7573 19.8587 19.9994 23.1872 23.4873 27.7344C24.5583 29.1291 25.2067 29.0246 26.2531 27.9243C27.9832 26.1385 29.4939 24.1034 30.7457 21.8723C31.0675 21.2781 31.5931 20.7169 30.9913 19.9192C29.5372 17.9935 28.5768 21.4294 25.6857 18.6208C24.6516 17.6139 23.5217 16.7336 22.436 15.7928C21.6205 15.0859 20.918 14.1423 21.1833 13.0062C21.564 11.3749 20.8173 10.8055 19.7095 10.236C17.5768 9.13341 15.3564 8.25753 13.0775 7.61995C12.0606 7.33111 11.4784 7.41089 11.4956 8.83585C11.5104 10.0545 10.9159 10.6377 9.74183 10.5854C8.02242 10.5111 6.37178 10.976 4.75553 11.5867C3.98916 11.8756 3.26209 11.9664 2.49081 11.5317C0.665774 10.5056 0.52577 9.85642 1.92832 8.23065C3.7291 6.10256 5.72944 4.19804 7.89468 2.55007C8.42279 2.15394 8.87721 1.72481 9.63375 2.27498C11.5988 3.66968 15.0769 3.44686 16.7104 1.57626C18.1031 -0.0192579 19.5106 -0.324602 21.2766 0.360369C22.8757 0.98482 24.5091 1.50473 26.0935 2.1677C27.5672 2.78114 28.7954 3.37533 28.6898 5.78786C28.6185 7.36962 30.3699 8.00783 31.7184 8.26366C34.2926 8.74782 35.2407 9.83992 35.3095 12.7201C35.452 18.7005 32.6616 23.3028 29.5298 27.6629C27.4714 30.5238 25.0323 32.9831 21.9153 34.4191C20.0952 35.2609 18.1842 35.7725 16.5458 34.144C14.5267 32.1138 15.185 28.8953 15.7843 26.2957C16.4377 23.8832 15.7843 22.6425 13.5565 22.0814C13.2273 21.9988 12.7655 21.8585 12.6869 22.2327C12.3283 23.9382 10.5229 25.2834 11.6332 27.3658C11.9623 27.982 11.8395 28.6477 11.697 29.2914C11.2475 31.4096 11.1149 33.5718 11.2132 36.2594Z" fill="black"/>
</svg>
